<svg width="24" height="24" viewBox="0 0 24 24" fill="none" xmlns="http://www.w3.org/2000/svg">
<path d="M3.9995 13.9987C3.81027 13.9993 3.62474 13.9463 3.46446 13.8457C3.30418 13.7451 3.17574 13.6011 3.09405 13.4304C3.01237 13.2597 2.9808 13.0693 3.003 12.8814C3.02521 12.6934 3.10028 12.5157 3.2195 12.3687L13.1195 2.1687C13.1938 2.08298 13.295 2.02505 13.4065 2.00443C13.518 1.98381 13.6332 2.00171 13.7332 2.0552C13.8332 2.10869 13.9121 2.19459 13.9568 2.29881C14.0016 2.40302 14.0096 2.51935 13.9795 2.6287L12.0595 8.6487C12.0029 8.80022 11.9839 8.96322 12.0041 9.1237C12.0243 9.28419 12.0832 9.43738 12.1756 9.57012C12.268 9.70287 12.3913 9.81121 12.5348 9.88586C12.6783 9.9605 12.8377 9.99922 12.9995 9.9987H19.9995C20.1887 9.99805 20.3743 10.0511 20.5345 10.1517C20.6948 10.2523 20.8233 10.3963 20.905 10.567C20.9866 10.7377 21.0182 10.9281 20.996 11.116C20.9738 11.304 20.8987 11.4817 20.7795 11.6287L10.8795 21.8287C10.8052 21.9144 10.704 21.9723 10.5925 21.993C10.481 22.0136 10.3658 21.9957 10.2658 21.9422C10.1658 21.8887 10.0869 21.8028 10.0422 21.6986C9.99742 21.5944 9.98943 21.4781 10.0195 21.3687L11.9395 15.3487C11.9961 15.1972 12.0151 15.0342 11.9949 14.8737C11.9747 14.7132 11.9158 14.56 11.8234 14.4273C11.731 14.2945 11.6077 14.1862 11.4642 14.1115C11.3207 14.0369 11.1613 13.9982 10.9995 13.9987H3.9995Z" stroke="white" stroke-width="2" stroke-linecap="round" stroke-linejoin="round"/>
</svg>
