<svg width="24" height="24" viewBox="0 0 24 24" fill="none" xmlns="http://www.w3.org/2000/svg">
<path d="M21.001 12.0004C21.553 12.0004 22.006 11.5514 21.951 11.0024C21.7205 8.70658 20.7031 6.56111 19.0713 4.92973C17.4396 3.29835 15.2939 2.28144 12.998 2.05141C12.448 1.99641 12 2.44941 12 3.00141V11.0014C12 11.2666 12.1054 11.521 12.2929 11.7085C12.4804 11.8961 12.7348 12.0014 13 12.0014L21.001 12.0004Z" stroke="white" stroke-width="2" stroke-linecap="round" stroke-linejoin="round"/>
<path d="M21.2104 15.8881C20.5742 17.3926 19.5792 18.7183 18.3123 19.7494C17.0454 20.7805 15.5452 21.4856 13.9428 21.8029C12.3405 22.1203 10.6848 22.0403 9.12055 21.5699C7.55627 21.0996 6.13103 20.2532 4.96942 19.1048C3.80782 17.9564 2.94522 16.5409 2.45704 14.9821C1.96886 13.4233 1.86996 11.7686 2.169 10.1628C2.46804 8.55691 3.1559 7.04875 4.17245 5.77015C5.189 4.49156 6.50329 3.48144 8.0004 2.82812" stroke="white" stroke-width="2" stroke-linecap="round" stroke-linejoin="round"/>
</svg>
